<svg width="100%" height="100%" viewBox="0 0 1920 1080" preserveAspectRatio="xMidYMid slice" xmlns="http://www.w3.org/2000/svg">
  <defs>
    <linearGradient id="bg" x1="0%" y1="0%" x2="100%" y2="100%">
      <stop offset="0%" stop-color="#e8f0f8"/>
      <stop offset="50%" stop-color="#ccdaee"/>
      <stop offset="100%" stop-color="#aec2e0"/>
    </linearGradient>
  </defs>

  <rect width="1920" height="1080" fill="url(#bg)"/>

  <!-- MASSIVE bottom-left blob -->
  <ellipse cx="-100" cy="1180" rx="1100" ry="980" fill="#4a7ab5" opacity="0.65"/>
  <ellipse cx="-200" cy="1250" rx="820" ry="700" fill="#2d4a6e" opacity="0.55"/>
  <ellipse cx="300" cy="980" rx="560" ry="500" fill="#6b9fd4" opacity="0.4"/>

  <!-- MASSIVE top-right blob -->
  <ellipse cx="2050" cy="-100" rx="1050" ry="920" fill="#4a7ab5" opacity="0.62"/>
  <ellipse cx="2150" cy="-150" rx="780" ry="660" fill="#1e3456" opacity="0.52"/>
  <ellipse cx="1700" cy="260" rx="480" ry="420" fill="#6b9fd4" opacity="0.35"/>

  <!-- Top center overflow blob -->
  <ellipse cx="960" cy="-200" rx="1100" ry="580" fill="#4a7ab5" opacity="0.28"/>

  <!-- Bottom center overflow blob -->
  <ellipse cx="960" cy="1300" rx="1050" ry="560" fill="#2d4a6e" opacity="0.26"/>

  <!-- Mid accent blobs -->
  <ellipse cx="1500" cy="750" rx="600" ry="540" fill="#4a7ab5" opacity="0.22"/>
  <ellipse cx="420" cy="380" rx="500" ry="440" fill="#6b9fd4" opacity="0.2"/>
  <ellipse cx="1150" cy="480" rx="380" ry="320" fill="#2d4a6e" opacity="0.16"/>

  <!-- Wave paths -->
  <path d="M0,650 Q300,480 560,600 Q820,720 1060,580 Q1300,440 1560,580 Q1760,680 1920,540 L1920,1080 L0,1080 Z" fill="#2d4a6e" opacity="0.22"/>
  <path d="M0,750 Q350,600 620,710 Q890,820 1100,680 Q1310,540 1580,680 Q1760,780 1920,660 L1920,1080 L0,1080 Z" fill="#1e3456" opacity="0.17"/>
  <path d="M0,850 Q400,730 700,820 Q1000,910 1250,780 Q1500,650 1920,780 L1920,1080 L0,1080 Z" fill="#4a7ab5" opacity="0.13"/>

  <!-- Top wave -->
  <path d="M0,0 Q340,160 600,60 Q860,-40 1100,120 Q1340,280 1600,140 Q1780,40 1920,180 L1920,0 Z" fill="#4a7ab5" opacity="0.28"/>
  <path d="M0,0 Q280,80 500,20 Q720,-40 960,100 Q1200,240 1480,80 Q1700,-20 1920,80 L1920,0 Z" fill="#2d4a6e" opacity="0.18"/>

  <!-- Dot cluster 1 -->
  <circle cx="640" cy="500" r="18" fill="#4a7ab5" opacity="0.3"/>
  <circle cx="720" cy="438" r="13" fill="#4a7ab5" opacity="0.24"/>
  <circle cx="800" cy="530" r="16" fill="#2d4a6e" opacity="0.27"/>
  <circle cx="670" cy="568" r="10" fill="#6b9fd4" opacity="0.22"/>
  <circle cx="570" cy="468" r="14" fill="#4a7ab5" opacity="0.24"/>
  <circle cx="860" cy="488" r="10" fill="#1e3456" opacity="0.2"/>
  <circle cx="740" cy="590" r="12" fill="#4a7ab5" opacity="0.2"/>

  <!-- Dot cluster 2 -->
  <circle cx="1220" cy="330" r="16" fill="#4a7ab5" opacity="0.27"/>
  <circle cx="1300" cy="268" r="10" fill="#2d4a6e" opacity="0.22"/>
  <circle cx="1170" cy="388" r="14" fill="#6b9fd4" opacity="0.24"/>
  <circle cx="1360" cy="350" r="18" fill="#4a7ab5" opacity="0.2"/>
  <circle cx="1280" cy="420" r="10" fill="#1e3456" opacity="0.22"/>
  <circle cx="1140" cy="290" r="12" fill="#6b9fd4" opacity="0.18"/>

  <!-- Grid lines cluster 1 -->
  <line x1="520" y1="180" x2="520" y2="420" stroke="#4a7ab5" stroke-width="2.5" opacity="0.14"/>
  <line x1="560" y1="160" x2="560" y2="400" stroke="#4a7ab5" stroke-width="2.5" opacity="0.12"/>
  <line x1="600" y1="190" x2="600" y2="430" stroke="#2d4a6e" stroke-width="2.5" opacity="0.14"/>
  <line x1="640" y1="170" x2="640" y2="410" stroke="#4a7ab5" stroke-width="2.5" opacity="0.12"/>
  <line x1="680" y1="185" x2="680" y2="425" stroke="#6b9fd4" stroke-width="2.5" opacity="0.12"/>
  <line x1="720" y1="175" x2="720" y2="415" stroke="#4a7ab5" stroke-width="2.5" opacity="0.11"/>
  <line x1="500" y1="210" x2="740" y2="210" stroke="#4a7ab5" stroke-width="1.8" opacity="0.1"/>
  <line x1="500" y1="244" x2="740" y2="244" stroke="#2d4a6e" stroke-width="1.8" opacity="0.1"/>
  <line x1="500" y1="278" x2="740" y2="278" stroke="#4a7ab5" stroke-width="1.8" opacity="0.1"/>
  <line x1="500" y1="312" x2="740" y2="312" stroke="#6b9fd4" stroke-width="1.8" opacity="0.1"/>
  <line x1="500" y1="346" x2="740" y2="346" stroke="#2d4a6e" stroke-width="1.8" opacity="0.1"/>
  <line x1="500" y1="380" x2="740" y2="380" stroke="#4a7ab5" stroke-width="1.8" opacity="0.09"/>

  <!-- Grid lines cluster 2 -->
  <line x1="1240" y1="640" x2="1240" y2="880" stroke="#4a7ab5" stroke-width="2.5" opacity="0.14"/>
  <line x1="1280" y1="620" x2="1280" y2="860" stroke="#2d4a6e" stroke-width="2.5" opacity="0.12"/>
  <line x1="1320" y1="645" x2="1320" y2="885" stroke="#4a7ab5" stroke-width="2.5" opacity="0.12"/>
  <line x1="1360" y1="625" x2="1360" y2="865" stroke="#6b9fd4" stroke-width="2.5" opacity="0.12"/>
  <line x1="1400" y1="640" x2="1400" y2="880" stroke="#4a7ab5" stroke-width="2.5" opacity="0.11"/>
  <line x1="1220" y1="660" x2="1420" y2="660" stroke="#4a7ab5" stroke-width="1.8" opacity="0.1"/>
  <line x1="1220" y1="694" x2="1420" y2="694" stroke="#2d4a6e" stroke-width="1.8" opacity="0.1"/>
  <line x1="1220" y1="728" x2="1420" y2="728" stroke="#4a7ab5" stroke-width="1.8" opacity="0.1"/>
  <line x1="1220" y1="762" x2="1420" y2="762" stroke="#6b9fd4" stroke-width="1.8" opacity="0.1"/>
  <line x1="1220" y1="796" x2="1420" y2="796" stroke="#2d4a6e" stroke-width="1.8" opacity="0.1"/>
  <line x1="1220" y1="830" x2="1420" y2="830" stroke="#4a7ab5" stroke-width="1.8" opacity="0.09"/>

  <!-- Large ring circles -->
  <circle cx="960" cy="540" r="220" fill="none" stroke="#4a7ab5" stroke-width="1.5" opacity="0.12"/>
  <circle cx="960" cy="540" r="320" fill="none" stroke="#4a7ab5" stroke-width="1" opacity="0.09"/>
  <circle cx="960" cy="540" r="440" fill="none" stroke="#2d4a6e" stroke-width="0.8" opacity="0.07"/>

  <circle cx="240" cy="160" r="160" fill="none" stroke="#6b9fd4" stroke-width="1.5" opacity="0.14"/>
  <circle cx="240" cy="160" r="240" fill="none" stroke="#4a7ab5" stroke-width="0.8" opacity="0.1"/>

  <circle cx="1700" cy="920" r="200" fill="none" stroke="#4a7ab5" stroke-width="1.5" opacity="0.12"/>
  <circle cx="1700" cy="920" r="300" fill="none" stroke="#2d4a6e" stroke-width="0.8" opacity="0.09"/>

  <!-- Organic outline shapes -->
  <path d="M420,580 Q500,540 540,590 Q580,640 540,690 Q500,740 445,705 Q390,670 420,580 Z" fill="none" stroke="#4a7ab5" stroke-width="2" opacity="0.14"/>
  <path d="M1380,220 Q1460,180 1500,230 Q1540,280 1500,330 Q1460,380 1400,345 Q1340,310 1380,220 Z" fill="none" stroke="#6b9fd4" stroke-width="2" opacity="0.12"/>

  <!-- Large organic filled blobs -->
  <path d="M860,420 Q920,330 1000,390 Q1080,450 1060,550 Q1040,650 960,620 Q880,590 850,510 Q820,430 860,420 Z" fill="#4a7ab5" opacity="0.12"/>
  <path d="M220,390 Q290,290 390,360 Q490,430 460,540 Q430,650 340,620 Q250,590 220,500 Q190,410 220,390 Z" fill="#2d4a6e" opacity="0.12"/>
  <path d="M1460,780 Q1530,680 1630,750 Q1730,820 1700,940 Q1670,1060 1570,1020 Q1470,980 1440,880 Q1410,780 1460,780 Z" fill="#6b9fd4" opacity="0.12"/>
</svg>
